<?xml version="1.0" encoding="UTF-8" standalone="no"?>
<svg
   xmlns:dc="http://purl.org/dc/elements/1.1/"
   xmlns:cc="http://creativecommons.org/ns#"
   xmlns:rdf="http://www.w3.org/1999/02/22-rdf-syntax-ns#"
   xmlns:svg="http://www.w3.org/2000/svg"
   xmlns="http://www.w3.org/2000/svg"
   width="100%"
   height="100%"
   viewBox="0 0 64 64"
   version="1.1"
   xml:space="preserve"
   style="fill-rule:evenodd;clip-rule:evenodd;stroke-linecap:round;stroke-linejoin:round;stroke-miterlimit:2;"
   id="svg15">
  <metadata
   id="metadata21">
    <rdf:RDF>
      <cc:Work
   rdf:about="">
        <dc:format>image/svg+xml</dc:format>

        <dc:type
   rdf:resource="http://purl.org/dc/dcmitype/StillImage" />

      </cc:Work>

    </rdf:RDF>

  </metadata>

  <defs
   id="defs19" />

  
  <path
   d="M36,57l-13.598,0c-1.035,0 -2.028,-0.411 -2.759,-1.143c-0.732,-0.731 -1.143,-1.724 -1.143,-2.759c0,-2.095 0,-4.756 0,-7.258c0,-4.86 5.405,-9.359 8.5,-11.837c0,0 0,0 0.001,-0.001c0.456,-0.365 0.722,-0.918 0.722,-1.502c0,-0.584 -0.266,-1.137 -0.722,-1.502c-0.001,-0.001 -0.001,-0.001 -0.001,-0.001c-3.095,-2.478 -8.5,-6.977 -8.5,-11.837l0,-7.258c0,-1.035 0.411,-2.028 1.143,-2.759c0.731,-0.732 1.724,-1.143 2.759,-1.143c5.124,0 14.072,0 19.196,0c1.035,0 2.028,0.411 2.759,1.143c0.732,0.731 1.143,1.724 1.143,2.759c0,3.218 0,7.258 0,7.258c0,4.86 -5.405,9.359 -8.5,11.837c0,0 0,0 -0.001,0.001c-0.456,0.365 -0.722,0.918 -0.722,1.502c0,0.584 0.266,1.137 0.722,1.502c0.001,0.001 0.001,0.001 0.001,0.001c1.54,1.233 3.653,2.967 5.386,4.997"
   style="fill:none;stroke:#222a33;stroke-width:2px;"
   id="path3" />

  <path
   d="M34,52.99c-3.376,0.01 -7.15,0.01 -9.285,0.01c-0.402,0 -0.778,-0.199 -1.003,-0.531c-0.226,-0.333 -0.271,-0.755 -0.123,-1.128c0.857,-1.487 4.485,-6.022 6.687,-8.733c0.408,-0.518 1.034,-0.817 1.694,-0.811c0.659,0.006 1.279,0.318 1.677,0.844c1.3,1.689 3.096,4.032 4.353,5.704"
   style="fill:none;stroke:#222a33;stroke-width:2px;"
   id="path5" />

  <path
   d="M29.21,27.5c-2.202,-2.711 -4.764,-5.854 -5.621,-7.341c-0.148,-0.373 -0.103,-0.795 0.123,-1.128c0.225,-0.332 0.601,-0.531 1.003,-0.531c2.061,0 3.002,2.491 6.285,2.5c1.565,0.004 5.708,-2.481 6.936,-2.472c0.652,0 1.25,0.363 1.552,0.94c0.303,0.578 0.259,1.276 -0.113,1.812c-0.636,0.941 -3.754,5.015 -5.728,7.579c-0.033,0.044 -0.072,0.086 -0.116,0.127c-0.967,0.974 -1.511,2.291 -1.511,3.664c-0.05,0.751 -0.05,1.35 -0.05,1.35"
   style="fill:none;stroke:#222a33;stroke-width:2px;"
   id="path7" />

  <path
   d="M39,11l1.51,0c0.395,0 0.774,0.157 1.054,0.436c0.279,0.28 0.436,0.659 0.436,1.054l0,1.51"
   style="fill:none;stroke:#222a33;stroke-width:2px;"
   id="path9" />

  <path
   d="M54,42c0,-1.657 -1.343,-3 -3,-3c-2.859,0 -7.141,0 -10,0c-1.657,0 -3,1.343 -3,3c0,1.902 0,4.407 0,6.594c0,2.98 1.764,5.678 4.495,6.872c1.822,0.798 3.505,1.534 3.505,1.534c0,0 1.683,-0.736 3.505,-1.534c2.731,-1.194 4.495,-3.892 4.495,-6.872c0,-2.187 0,-4.692 0,-6.594Z"
   style="fill:none;stroke:#222a33;stroke-width:2px;"
   id="path11" />

  <path
   d="M42.75,47.248l2.5,2l4,-3.5"
   style="fill:none;stroke:#222a33;stroke-width:2px;"
   id="path13" />

</svg>
